<svg version="1.2" xmlns="http://www.w3.org/2000/svg" viewBox="0 0 24 24" width="24" height="24"><style>.a{fill:#998ef7}</style><path class="a" d="m9.5 12c2.2 0 4-1.8 4-4 0-2.2-1.8-4-4-4-2.2 0-4 1.8-4 4 0 2.2 1.8 4 4 4zm1.5 1h-3c-3.3 0-6 2.7-6 6v1h15v-1c0-3.3-2.7-6-6-6z"/><path class="a" d="m16.6 11q0.2-0.3 0.4-0.8 0.2-0.4 0.3-0.8 0-0.5 0.1-0.9 0-0.4 0-0.9c-0.2-1.8-1.2-3.4-2.8-4.4l-1.2 1.6c1.2 0.8 1.8 1.8 2 3q0 0.4 0 0.8-0.1 0.4-0.2 0.8-0.2 0.4-0.4 0.8-0.2 0.3-0.5 0.6l-1.2 1.2 1.6 0.5c4.3 1.2 4.3 5.5 4.3 5.5h2c0-1.8-1-5.3-4.4-7z"/></svg>